<svg xmlns="http://www.w3.org/2000/svg" version="1.1" xmlns:xlink="http://www.w3.org/1999/xlink" xmlns:svgjs="http://svgjs.dev/svgjs" width="1000" height="1000" viewBox="0 0 1000 1000"><rect width="1000" height="1000" fill="#ffffff"></rect><g transform="matrix(0.7,0,0,0.7,149.57576242569064,383.76143003747376)"><svg viewBox="0 0 396 132" data-background-color="#ffffff" preserveAspectRatio="xMidYMid meet" height="333" width="1000" xmlns="http://www.w3.org/2000/svg" xmlns:xlink="http://www.w3.org/1999/xlink"><g id="tight-bounds" transform="matrix(1,0,0,1,0.2399972563235906,-0.1763567779774462)"><svg viewBox="0 0 395.52 132.3527135559549" height="132.3527135559549" width="395.52"><g><svg viewBox="0 0 658.9559866287163 220.50620182102585" height="132.3527135559549" width="395.52"><g transform="matrix(1,0,0,1,263.4359866287163,31.259091053631195)"><svg viewBox="0 0 395.52 157.98801971376346" height="157.98801971376346" width="395.52"><g id="textblocktransform"><svg viewBox="0 0 395.52 157.98801971376346" height="157.98801971376346" width="395.52" id="textblock"><g><svg viewBox="0 0 395.52 90.92365341604068" height="90.92365341604068" width="395.52"><g transform="matrix(1,0,0,1,0,0)"><svg width="395.52" viewBox="2.950000047683716 -34.75 156.37124633789062 35.95000076293945" height="90.92365341604068" data-palette-color="#000000"><g class="undefined-text-0" data-fill-palette-color="primary" id="text-0"><path d="M4.4 0.05Q4.05 0.05 3.75-0.23 3.45-0.5 3.3-0.95L3.3-0.95Q3.1-1.85 3-2.95L3-2.95Q2.95-3.3 2.95-3.9L2.95-3.9 2.95-4.55 3-10.75Q3-13.9 3.15-16.95L3.15-16.95 3.15-32.75Q3.15-33.25 3.8-33.25L3.8-33.25Q7.25-33.25 8.95-33.3L8.95-33.3 13.95-33.3Q14.1-33.3 14.2-33.35 14.3-33.4 14.45-33.4L14.45-33.4Q15.1-33.5 16.25-33.45L16.25-33.45Q17.1-33.45 18.05-33.3L18.05-33.3Q18.35-33.1 18.5-33.2L18.5-33.2Q18.6-33.2 18.9-33.3L18.9-33.3Q19.65-33.3 20.08-33.2 20.5-33.1 20.75-32.75L20.75-32.75Q21-32.3 21.15-31.65L21.15-31.65Q21.2-31.15 21.2-29.55L21.2-29.55 21.2-19.8 21.2-19.05Q21.15-18.65 21.15-17.25L21.15-17.25Q21.15-15.75 21.05-14.9L21.05-14.9 21-12.65Q20.95-11.9 20.95-10.75L20.95-10.75 20.9-9.95 20.9-6.75Q20.9-3.75 20.65-1.65L20.65-1.65Q20.65-0.95 20.3-0.25L20.3-0.25Q19.4-0.25 17.7-0.15L17.7-0.15Q16.9-0.15 16.65-0.05L16.65-0.05 16.15-0.05 16-0.05Q15.65-0.05 15.65-0.15L15.65-0.15Q15.25-0.25 15.2-0.25L15.2-0.25 14.8-0.05 10.2-0.05Q10.15 0 9.4 0L9.4 0 7.5 0 5.65 0 4.4 0.05ZM44.15 1.2Q40.85 1.2 38.65 0.9L38.65 0.9Q35.8 0.5 33.5-0.55L33.5-0.55Q33.2-0.7 32.62-1.03 32.05-1.35 31.65-1.65L31.65-1.65Q30-3.05 28.95-4.8L28.95-4.8Q28.1-5.7 27.4-7.3L27.4-7.3Q26.05-10.8 26.05-15.65L26.05-15.65Q26.05-21.35 28.4-25.65L28.4-25.65Q30.45-29.75 33.87-32.08 37.3-34.4 41.65-34.7L41.65-34.7 42.25-34.75 42.9-34.75Q46.8-34.75 51.3-33.15L51.3-33.15Q51.7-32.95 53.05-32.35 54.4-31.75 55.55-31L55.55-31 54.65-24.5 51.7-25.25Q50.1-25.65 48.7-25.65L48.7-25.65Q45.9-25.65 44.5-23.55L44.5-23.55Q43-21.35 43-16.4L43-16.4Q43-14.8 43.15-14.15L43.15-14.15Q43.35-11 44.55-9.5L44.55-9.5Q45.7-8.2 47.3-8.2L47.3-8.2Q48.8-8.2 50.65-9.15L50.65-9.15Q52.25-9.9 54.15-11.2L54.15-11.2 54.65-3Q52.7-1.2 49.65 0.05L49.65 0.05Q46.75 1.2 44.15 1.2L44.15 1.2ZM64.8 0Q64.55 0 64.05-0.08 63.55-0.15 62.84-0.2L62.84-0.2 61.8-0.45Q61.55-0.5 61.42-0.58 61.3-0.65 61.34-0.7L61.34-0.7Q61.34-2 61.2-4.15L61.2-4.15Q61.2-4.9 61.15-5.48 61.09-6.05 61.05-6.45L61.05-6.45 60.95-8.6Q60.95-9.45 60.84-10.75L60.84-10.75 60.8-12.3Q60.8-14.2 60.75-15.25L60.75-15.25Q60.7-16.3 60.7-19.65L60.7-19.65Q60.7-22.8 60.75-26.15 60.8-29.5 61.05-32.5L61.05-32.5Q61.05-33.05 62.25-33.4L62.25-33.4Q63-33.5 64.75-33.5L64.75-33.5Q68.8-33.5 70.7-33.65L70.7-33.65Q76.59-33.75 79.59-33.75L79.59-33.75 81.8-33.75Q85.9-33.65 88.09-33.45L88.09-33.45Q88.9-33.45 89.25-31.55L89.25-31.55Q89.4-31.2 89.59-29.75L89.59-29.75Q89.75-29 90-27.9L90-27.9Q90.05-27.6 90.02-27.33 90-27.05 90-27L90-27Q89.94-26.5 89.45-26.5L89.45-26.5Q89.25-26.55 88.84-26.55L88.84-26.55Q86.75-26.55 83.7-26.2L83.7-26.2 81.05-26Q79.4-25.8 78.45-25.75L78.45-25.75Q78.3-25.75 78.05-25.15L78.05-25.15Q77.84-24.5 77.59-22.15L77.59-22.15 77.5-20.9Q77.5-20.25 77.65-20.08 77.8-19.9 78.3-19.9L78.3-19.9 82.75-19.9Q84.7-19.9 87.2-19.65L87.2-19.65 87.8-19.65Q88.45-19.5 88.59-19.15L88.59-19.15Q88.8-18.85 88.84-18.5L88.84-18.5 89.05-14.05 89.05-13.9Q89.05-13.05 87.25-12.9L87.25-12.9Q86.2-12.65 83.25-12.65L83.25-12.65Q80.7-12.65 79.95-12.7L79.95-12.7Q78.5-12.7 78.2-12.65L78.2-12.65Q77.65-12.5 77.5-12.08 77.34-11.65 77.34-10.65L77.34-10.65Q77.34-10 77.25-8.8L77.25-8.8Q77.2-8.2 77.2-6.9L77.2-6.9Q80.45-6.9 82-7L82-7Q83.7-7.15 86.8-7.15L86.8-7.15Q87-7.15 87.2-6.8L87.2-6.8Q87.45-6.3 88-4.55L88-4.55Q88.3-3.55 88.59-2.05L88.59-2.05Q88.7-1.7 88.7-1.3L88.7-1.3Q88.7-0.25 87.7-0.25L87.7-0.25Q86.4-0.25 84.2-0.15L84.2-0.15Q83.05-0.05 80.59-0.05L80.59-0.05Q75.34-0.05 72.7 0L72.7 0 64.8 0ZM99.44 0Q99.19 0 98.69-0.08 98.19-0.15 97.49-0.2L97.49-0.2 96.44-0.45Q96.19-0.5 96.07-0.58 95.94-0.65 95.99-0.7L95.99-0.7Q95.99-2 95.84-4.15L95.84-4.15Q95.84-4.9 95.79-5.48 95.74-6.05 95.69-6.45L95.69-6.45 95.59-8.6Q95.59-9.45 95.49-10.75L95.49-10.75 95.44-12.3Q95.44-14.2 95.39-15.25L95.39-15.25Q95.34-16.3 95.34-19.65L95.34-19.65Q95.34-22.8 95.39-26.15 95.44-29.5 95.69-32.5L95.69-32.5Q95.69-33.05 96.89-33.4L96.89-33.4Q97.64-33.5 99.39-33.5L99.39-33.5Q103.44-33.5 105.34-33.65L105.34-33.65Q111.24-33.75 114.24-33.75L114.24-33.75 116.44-33.75Q120.54-33.65 122.74-33.45L122.74-33.45Q123.54-33.45 123.89-31.55L123.89-31.55Q124.04-31.2 124.24-29.75L124.24-29.75Q124.39-29 124.64-27.9L124.64-27.9Q124.69-27.6 124.67-27.33 124.64-27.05 124.64-27L124.64-27Q124.59-26.5 124.09-26.5L124.09-26.5Q123.89-26.55 123.49-26.55L123.49-26.55Q121.39-26.55 118.34-26.2L118.34-26.2 115.69-26Q114.04-25.8 113.09-25.75L113.09-25.75Q112.94-25.75 112.69-25.15L112.69-25.15Q112.49-24.5 112.24-22.15L112.24-22.15 112.14-20.9Q112.14-20.25 112.29-20.08 112.44-19.9 112.94-19.9L112.94-19.9 117.39-19.9Q119.34-19.9 121.84-19.65L121.84-19.65 122.44-19.65Q123.09-19.5 123.24-19.15L123.24-19.15Q123.44-18.85 123.49-18.5L123.49-18.5 123.69-14.05 123.69-13.9Q123.69-13.05 121.89-12.9L121.89-12.9Q120.84-12.65 117.89-12.65L117.89-12.65Q115.34-12.65 114.59-12.7L114.59-12.7Q113.14-12.7 112.84-12.65L112.84-12.65Q112.29-12.5 112.14-12.08 111.99-11.65 111.99-10.65L111.99-10.65Q111.99-10 111.89-8.8L111.89-8.8Q111.84-8.2 111.84-6.9L111.84-6.9Q115.09-6.9 116.64-7L116.64-7Q118.34-7.15 121.44-7.15L121.44-7.15Q121.64-7.15 121.84-6.8L121.84-6.8Q122.09-6.3 122.64-4.55L122.64-4.55Q122.94-3.55 123.24-2.05L123.24-2.05Q123.34-1.7 123.34-1.3L123.34-1.3Q123.34-0.25 122.34-0.25L122.34-0.25Q121.04-0.25 118.84-0.15L118.84-0.15Q117.69-0.05 115.24-0.05L115.24-0.05Q109.99-0.05 107.34 0L107.34 0 99.44 0ZM134.09 0Q133.84 0 133.34-0.08 132.84-0.15 132.14-0.2L132.14-0.2 131.09-0.45Q130.84-0.5 130.72-0.58 130.59-0.65 130.64-0.7L130.64-0.7Q130.64-2 130.49-4.15L130.49-4.15Q130.49-4.9 130.44-5.48 130.39-6.05 130.34-6.45L130.34-6.45 130.24-8.6Q130.24-9.45 130.14-10.75L130.14-10.75 130.09-12.3Q130.09-14.2 130.04-15.25L130.04-15.25Q129.99-16.3 129.99-19.65L129.99-19.65Q129.99-22.8 130.04-26.15 130.09-29.5 130.34-32.5L130.34-32.5Q130.34-33.05 131.54-33.4L131.54-33.4Q132.29-33.5 134.04-33.5L134.04-33.5Q138.09-33.5 139.99-33.65L139.99-33.65Q145.89-33.75 148.89-33.75L148.89-33.75 151.09-33.75Q155.19-33.65 157.39-33.45L157.39-33.45Q158.19-33.45 158.54-31.55L158.54-31.55Q158.69-31.2 158.89-29.75L158.89-29.75Q159.04-29 159.29-27.9L159.29-27.9Q159.34-27.6 159.31-27.33 159.29-27.05 159.29-27L159.29-27Q159.24-26.5 158.74-26.5L158.74-26.5Q158.54-26.55 158.14-26.55L158.14-26.55Q156.04-26.55 152.99-26.2L152.99-26.2 150.34-26Q148.69-25.8 147.74-25.75L147.74-25.75Q147.59-25.75 147.34-25.15L147.34-25.15Q147.14-24.5 146.89-22.15L146.89-22.15 146.79-20.9Q146.79-20.25 146.94-20.08 147.09-19.9 147.59-19.9L147.59-19.9 152.04-19.9Q153.99-19.9 156.49-19.65L156.49-19.65 157.09-19.65Q157.74-19.5 157.89-19.15L157.89-19.15Q158.09-18.85 158.14-18.5L158.14-18.5 158.34-14.05 158.34-13.9Q158.34-13.05 156.54-12.9L156.54-12.9Q155.49-12.65 152.54-12.65L152.54-12.65Q149.99-12.65 149.24-12.7L149.24-12.7Q147.79-12.7 147.49-12.65L147.49-12.65Q146.94-12.5 146.79-12.08 146.64-11.65 146.64-10.65L146.64-10.65Q146.64-10 146.54-8.8L146.54-8.8Q146.49-8.2 146.49-6.9L146.49-6.9Q149.74-6.9 151.29-7L151.29-7Q152.99-7.15 156.09-7.15L156.09-7.15Q156.29-7.15 156.49-6.8L156.49-6.8Q156.74-6.3 157.29-4.55L157.29-4.55Q157.59-3.55 157.89-2.05L157.89-2.05Q157.99-1.7 157.99-1.3L157.99-1.3Q157.99-0.25 156.99-0.25L156.99-0.25Q155.69-0.25 153.49-0.15L153.49-0.15Q152.34-0.05 149.89-0.05L149.89-0.05Q144.64-0.05 141.99 0L141.99 0 134.09 0Z" fill="#000000" data-fill-palette-color="primary"></path></g></svg></g></svg></g><g transform="matrix(1,0,0,1,0,112.3885458198859)"><svg viewBox="0 0 232.209792 45.59947389387756" height="45.59947389387756" width="232.209792"><g transform="matrix(1,0,0,1,0,0)"><svg width="232.209792" viewBox="-0.8500000238418579 -42.400001525878906 220.48001098632812 43.30000305175781" height="45.59947389387756" data-palette-color="#646464"><path d="M24.7-42.1Q26-42.1 26.9-41.48 27.8-40.85 27.8-39.95L27.8-39.95Q27.8-38.35 26.8-37.38 25.8-36.4 23.95-36.4L23.95-36.4Q21.05-36.4 19.55-36.35L19.55-36.35Q19.45-35.75 18.65-30.95L18.65-30.95Q17.75-25.6 17.55-24.4L17.55-24.4 16.5-17.85Q15.4-10.5 14.75-5.55L14.75-5.55Q15.8-5.6 17.6-5.6L17.6-5.6Q20.25-5.6 21.2-4.9 22.15-4.2 22.15-2.8L22.15-2.8Q22.15-1.5 21.13-0.6 20.1 0.3 18.25 0.3L18.25 0.3Q17 0.3 14.3 0.2L14.3 0.2Q11.8 0.1 11 0.1L11 0.1Q7.85 0.1 4.1 0.65L4.1 0.65Q2.45 0.9 1.75 0.9L1.75 0.9Q0.65 0.9-0.1 0.3-0.85-0.3-0.85-1.45L-0.85-1.45Q-0.85-3.25 0.75-4.25 2.35-5.25 5.25-5.3L5.25-5.3 7.6-5.35 7.75-6.45Q8.95-14.45 9.5-17.75L9.5-17.75 10.6-24.3Q11.6-30.1 12.4-36.25L12.4-36.25 8.2-36.2Q6.4-36.2 5.73-36.77 5.05-37.35 5.05-38.4L5.05-38.4Q5.05-41.8 9.95-42.05L9.95-42.05Q12.25-42.15 15.55-42.15L15.55-42.15 24.7-42.1ZM36.7 0.25Q31.8 0.25 29.07-2.53 26.35-5.3 26.35-9.85L26.35-9.85Q26.35-13.9 27.95-16.95 29.55-20 32.1-21.65 34.65-23.3 37.45-23.3L37.45-23.3Q40.2-23.3 41.72-21.68 43.25-20.05 43.25-17.5L43.25-17.5Q43.25-15.4 42.32-13.95 41.4-12.5 39.9-12.5L39.9-12.5Q38.95-12.5 38.37-12.95 37.8-13.4 37.8-14.2L37.8-14.2Q37.8-14.55 37.9-15 38-15.45 38.05-15.65L38.05-15.65Q38.3-16.4 38.3-17.05L38.3-17.05Q38.3-17.7 37.97-18.05 37.65-18.4 37.05-18.4L37.05-18.4Q35.9-18.4 34.9-17.38 33.9-16.35 33.3-14.6 32.7-12.85 32.7-10.75L32.7-10.75Q32.7-4.95 37.75-4.95L37.75-4.95Q39.8-4.95 42.17-6.33 44.55-7.7 46.85-10.45L46.85-10.45Q47.45-11.15 48.2-11.15L48.2-11.15Q48.85-11.15 49.22-10.55 49.6-9.95 49.6-8.9L49.6-8.9Q49.6-7 48.65-5.8L48.65-5.8Q46.3-2.9 43.02-1.33 39.75 0.25 36.7 0.25L36.7 0.25ZM67.84-11.15Q68.5-11.15 68.87-10.55 69.25-9.95 69.25-8.9L69.25-8.9Q69.25-6.9 68.3-5.8L68.3-5.8Q66.45-3.55 63.07-1.65 59.7 0.25 55.85 0.25L55.85 0.25Q50.6 0.25 47.7-2.6 44.8-5.45 44.8-10.4L44.8-10.4Q44.8-13.85 46.25-16.82 47.7-19.8 50.27-21.55 52.85-23.3 56.1-23.3L56.1-23.3Q59-23.3 60.75-21.58 62.5-19.85 62.5-16.9L62.5-16.9Q62.5-13.45 60.02-10.98 57.55-8.5 51.65-7.05L51.65-7.05Q52.9-4.75 56.4-4.75L56.4-4.75Q58.65-4.75 61.52-6.33 64.4-7.9 66.5-10.45L66.5-10.45Q67.09-11.15 67.84-11.15L67.84-11.15ZM55.25-18.4Q53.4-18.4 52.12-16.25 50.85-14.1 50.85-11.05L50.85-11.05 50.85-10.95Q53.8-11.65 55.5-13.05 57.2-14.45 57.2-16.3L57.2-16.3Q57.2-17.25 56.67-17.82 56.15-18.4 55.25-18.4L55.25-18.4ZM98.69 0.25Q92.74 0.25 88.34-1.93 83.94-4.1 81.59-8.1 79.24-12.1 79.24-17.4L79.24-17.4Q79.24-24.75 82.02-30.45 84.79-36.15 89.54-39.28 94.29-42.4 100.09-42.4L100.09-42.4Q105.49-42.4 108.29-39.63 111.09-36.85 111.09-32.3L111.09-32.3Q111.09-29.25 110.02-27.4 108.94-25.55 106.94-25.55L106.94-25.55Q105.54-25.55 104.74-26.2 103.94-26.85 103.94-28.1L103.94-28.1Q103.94-28.55 104.14-29.75L104.14-29.75Q104.44-31.25 104.44-32.15L104.44-32.15Q104.44-36.7 99.59-36.7L99.59-36.7Q96.29-36.7 93.29-34.55 90.29-32.4 88.44-28.23 86.59-24.05 86.59-18.3L86.59-18.3Q86.59-12.3 89.94-9.03 93.29-5.75 99.84-5.75L99.84-5.75Q103.09-5.75 106.42-6.58 109.74-7.4 113.79-9.1L113.79-9.1Q114.54-9.4 115.04-9.4L115.04-9.4Q115.84-9.4 116.24-8.8 116.64-8.2 116.64-7.25L116.64-7.25Q116.64-4.2 113.34-2.75L113.34-2.75Q109.79-1.2 105.97-0.48 102.14 0.25 98.69 0.25L98.69 0.25ZM116.29 0.25Q114.39 0.25 113.61-1.75 112.84-3.75 112.84-8.15L112.84-8.15Q112.84-14.65 114.69-20.5L114.69-20.5Q115.14-21.95 116.16-22.63 117.19-23.3 119.04-23.3L119.04-23.3Q120.04-23.3 120.44-23.05 120.84-22.8 120.84-22.1L120.84-22.1Q120.84-21.3 120.09-18.5L120.09-18.5Q119.59-16.5 119.29-15 118.99-13.5 118.79-11.3L118.79-11.3Q120.44-15.6 122.49-18.3 124.54-21 126.51-22.15 128.49-23.3 130.14-23.3L130.14-23.3Q133.39-23.3 133.39-20.05L133.39-20.05Q133.39-19.4 132.94-16.9L132.94-16.9Q132.54-14.9 132.54-14.4L132.54-14.4Q132.54-12.65 133.79-12.65L133.79-12.65Q135.19-12.65 137.39-14.85L137.39-14.85Q138.04-15.5 138.74-15.5L138.74-15.5Q139.39-15.5 139.76-14.93 140.14-14.35 140.14-13.4L140.14-13.4Q140.14-11.55 139.14-10.5L139.14-10.5Q137.74-9.05 135.86-8.03 133.99-7 131.89-7L131.89-7Q129.24-7 127.86-8.35 126.49-9.7 126.49-12L126.49-12Q126.49-12.75 126.64-13.5L126.64-13.5Q126.74-14.5 126.74-14.85L126.74-14.85Q126.74-15.65 126.19-15.65L126.19-15.65Q125.44-15.65 124.21-13.98 122.99-12.3 121.79-9.55 120.59-6.8 119.84-3.75L119.84-3.75Q119.29-1.4 118.56-0.58 117.84 0.25 116.29 0.25L116.29 0.25ZM157.79-11.15Q158.44-11.15 158.81-10.55 159.19-9.95 159.19-8.9L159.19-8.9Q159.19-6.9 158.24-5.8L158.24-5.8Q156.39-3.55 153.01-1.65 149.64 0.25 145.78 0.25L145.78 0.25Q140.53 0.25 137.64-2.6 134.74-5.45 134.74-10.4L134.74-10.4Q134.74-13.85 136.19-16.82 137.64-19.8 140.21-21.55 142.78-23.3 146.03-23.3L146.03-23.3Q148.94-23.3 150.69-21.58 152.44-19.85 152.44-16.9L152.44-16.9Q152.44-13.45 149.96-10.98 147.49-8.5 141.59-7.05L141.59-7.05Q142.84-4.75 146.34-4.75L146.34-4.75Q148.59-4.75 151.46-6.33 154.34-7.9 156.44-10.45L156.44-10.45Q157.04-11.15 157.79-11.15L157.79-11.15ZM145.19-18.4Q143.34-18.4 142.06-16.25 140.78-14.1 140.78-11.05L140.78-11.05 140.78-10.95Q143.74-11.65 145.44-13.05 147.14-14.45 147.14-16.3L147.14-16.3Q147.14-17.25 146.61-17.82 146.09-18.4 145.19-18.4L145.19-18.4ZM161.03 0.25Q157.93 0.25 156.08-2 154.23-4.25 154.23-7.9L154.23-7.9Q154.23-11.9 156.08-15.48 157.93-19.05 161.01-21.23 164.08-23.4 167.53-23.4L167.53-23.4Q168.63-23.4 169.01-22.98 169.38-22.55 169.63-21.45L169.63-21.45Q170.68-21.65 171.83-21.65L171.83-21.65Q174.28-21.65 174.28-19.9L174.28-19.9Q174.28-18.85 173.53-14.9L173.53-14.9Q172.38-9.15 172.38-6.9L172.38-6.9Q172.38-6.15 172.76-5.7 173.13-5.25 173.73-5.25L173.73-5.25Q174.68-5.25 176.03-6.48 177.38-7.7 179.68-10.45L179.68-10.45Q180.28-11.15 181.03-11.15L181.03-11.15Q181.68-11.15 182.06-10.55 182.43-9.95 182.43-8.9L182.43-8.9Q182.43-6.9 181.48-5.8L181.48-5.8Q179.43-3.25 177.13-1.5 174.83 0.25 172.68 0.25L172.68 0.25Q171.03 0.25 169.66-0.88 168.28-2 167.58-3.95L167.58-3.95Q164.98 0.25 161.03 0.25L161.03 0.25ZM162.83-4.8Q163.93-4.8 164.93-6.1 165.93-7.4 166.38-9.55L166.38-9.55 168.23-18.75Q166.13-18.7 164.36-17.18 162.58-15.65 161.53-13.15 160.48-10.65 160.48-7.85L160.48-7.85Q160.48-6.3 161.11-5.55 161.73-4.8 162.83-4.8L162.83-4.8ZM181.93 0.25Q180.03 0.25 179.26-1.75 178.48-3.75 178.48-8.15L178.48-8.15Q178.48-14.65 180.33-20.5L180.33-20.5Q180.78-21.95 181.81-22.63 182.83-23.3 184.68-23.3L184.68-23.3Q185.68-23.3 186.08-23.05 186.48-22.8 186.48-22.1L186.48-22.1Q186.48-21.3 185.73-18.5L185.73-18.5Q185.23-16.5 184.93-15.03 184.63-13.55 184.43-11.35L184.43-11.35Q185.78-15.25 187.66-17.95 189.53-20.65 191.51-21.98 193.48-23.3 195.23-23.3L195.23-23.3Q196.98-23.3 197.71-22.5 198.43-21.7 198.43-20.05L198.43-20.05Q198.43-18.45 197.48-14.25L197.48-14.25Q197.08-12.45 196.93-11.55L196.93-11.55Q199.43-17.7 202.48-20.5 205.53-23.3 208.18-23.3L208.18-23.3Q211.43-23.3 211.43-20.05L211.43-20.05Q211.43-18.1 210.33-13L210.33-13Q209.38-8.65 209.38-7.25L209.38-7.25Q209.38-5.25 210.83-5.25L210.83-5.25Q211.83-5.25 213.21-6.48 214.58-7.7 216.88-10.45L216.88-10.45Q217.48-11.15 218.23-11.15L218.23-11.15Q218.88-11.15 219.26-10.55 219.63-9.95 219.63-8.9L219.63-8.9Q219.63-6.9 218.68-5.8L218.68-5.8Q216.53-3.15 214.06-1.45 211.58 0.25 208.43 0.25L208.43 0.25Q205.88 0.25 204.58-1.23 203.28-2.7 203.28-5.5L203.28-5.5Q203.28-6.9 203.98-10.5L203.98-10.5Q204.63-13.65 204.63-14.85L204.63-14.85Q204.63-15.65 204.08-15.65L204.08-15.65Q203.43-15.65 202.23-13.98 201.03-12.3 199.83-9.55 198.63-6.8 197.88-3.75L197.88-3.75Q197.33-1.35 196.61-0.55 195.88 0.25 194.28 0.25L194.28 0.25Q192.63 0.25 191.81-1.33 190.98-2.9 190.98-5.15L190.98-5.15Q190.98-7.05 191.48-10.65L191.48-10.65Q191.88-13.85 191.88-14.85L191.88-14.85Q191.88-15.65 191.33-15.65L191.33-15.65Q190.58-15.65 189.43-13.85 188.28-12.05 187.21-9.25 186.13-6.45 185.48-3.75L185.48-3.75Q184.93-1.4 184.21-0.58 183.48 0.25 181.93 0.25L181.93 0.25Z" opacity="1" transform="matrix(1,0,0,1,0,0)" fill="#646464" class="undefined-text-1" data-fill-palette-color="secondary" id="text-1"></path></svg></g></svg></g></svg></g></svg></g><g><svg viewBox="0 0 220.50620182102585 220.50620182102585" height="220.50620182102585" width="220.50620182102585"><g><svg></svg></g><g id="icon-0"><svg viewBox="0 0 220.50620182102585 220.50620182102585" height="220.50620182102585" width="220.50620182102585"><g><path d="M0 110.253c0-60.891 49.362-110.253 110.253-110.253 60.891 0 110.253 49.362 110.253 110.253 0 60.891-49.362 110.253-110.253 110.253-60.891 0-110.253-49.362-110.253-110.253zM110.253 212.307c56.363 0 102.054-45.691 102.054-102.054 0-56.363-45.691-102.054-102.054-102.053-56.363 0-102.054 45.691-102.053 102.053 0 56.363 45.691 102.054 102.053 102.054z" data-fill-palette-color="accent" fill="#000000" stroke="transparent"></path></g><g transform="matrix(1,0,0,1,52.713785493988325,53.81902620974371)"><svg viewBox="0 0 115.0786308330492 112.86814940153843" height="112.86814940153843" width="115.0786308330492"><g><svg xmlns="http://www.w3.org/2000/svg" xmlns:xlink="http://www.w3.org/1999/xlink" version="1.1" x="0" y="0" viewBox="28.982994079589844 29.388626098632812 42.033782958984375 41.22637939453125" enable-background="new 0 0 100 100" xml:space="preserve" height="112.86814940153843" width="115.0786308330492" class="icon-s-0" data-fill-palette-color="accent" id="s-0"><path d="M70.782 58.37c-0.739-2.163-2.962-3.309-5.438-2.782l-9.879 2.396c-0.396-1.001-1.145-1.868-2.184-2.402-3.265-1.682-9.111-4.503-11.586-4.503-1.385 0-3.097 0.351-4.908 0.721-2.05 0.42-4.17 0.854-6.033 0.854-0.829 0-1.5 0.672-1.5 1.5s0.671 1.5 1.5 1.5c2.168 0 4.541-0.485 6.635-0.914 1.658-0.34 3.226-0.66 4.307-0.66 1.266 0 5.37 1.676 10.279 4.204 0.775 0.399 0.947 1.288 0.715 1.921-0.284 0.78-1.07 1.062-2.211 0.802-4.944-1.136-7.113-1.848-7.135-1.854-0.784-0.262-1.635 0.166-1.895 0.952-0.261 0.786 0.164 1.634 0.951 1.896 0.091 0.03 2.295 0.757 7.406 1.931 0.523 0.12 1.012 0.175 1.463 0.175 2.322 0 3.716-1.443 4.238-2.869 0.021-0.062 0.029-0.124 0.049-0.186l10.453-2.537c0.963-0.206 1.687 0.104 1.934 0.826 0.216 0.633 0.027 1.583-1.217 2.182l-0.299 0.144c-10.72 5.156-12.367 5.948-16.473 5.948-1.232 0-3.604-0.67-6.113-1.38-3.588-1.014-7.654-2.163-10.955-2.163h-2.403c-0.829 0-1.5 0.672-1.5 1.5s0.671 1.5 1.5 1.5h2.403c2.886 0 6.739 1.089 10.139 2.05 2.834 0.802 5.281 1.493 6.93 1.493 4.789 0 6.771-0.953 17.773-6.245l0.298-0.144C70.833 62.874 71.422 60.243 70.782 58.37zM36.652 50.28c0.829 0 1.5-0.672 1.5-1.5 0-2.996 2.46-4.748 4.897-5.154 1.554-0.26 3.13-0.092 4.56 0.484 0.767 0.311 1.643-0.061 1.952-0.829s-0.062-1.643-0.83-1.952c-1.94-0.783-4.075-1.011-6.175-0.662-0.342 0.057-0.672 0.135-0.996 0.224 0.221-0.835 0.589-1.517 1.141-2.001 1.695-1.488 4.691-1.247 6.326-0.972 2.305 0.388 4.348-0.445 5.465-2.229 0.275-0.439 0.479-0.915 0.614-1.406 2.996 3.083 3.593 6.958 2.429 9.726-1.322 3.144-4.617 4.385-8.814 3.318-0.803-0.201-1.619 0.282-1.822 1.085-0.204 0.804 0.281 1.619 1.085 1.823 1.301 0.33 2.499 0.479 3.599 0.479 2.992 0 5.241-1.105 6.791-2.665 2.194 1.195 2.967 3.81 2.967 4.906 0 0.828 0.672 1.5 1.5 1.5 0.829 0 1.5-0.672 1.5-1.5 0-2.004-1.172-5.548-4.223-7.384 0.062-0.133 0.127-0.266 0.184-0.399 1.948-4.634 0.409-11.468-6.303-15.562-0.608-0.374-1.395-0.265-1.879 0.258-0.486 0.521-0.538 1.312-0.125 1.892 0.43 0.605 0.411 1.609-0.045 2.337-0.472 0.752-1.309 1.053-2.424 0.863-2.158-0.364-6.174-0.63-8.803 1.676-1.536 1.347-2.332 3.309-2.388 5.825-1.978 1.511-3.183 3.773-3.183 6.32C35.152 49.608 35.824 50.28 36.652 50.28z" fill="#000000" data-fill-palette-color="accent"></path></svg></g></svg></g></svg></g></svg></g></svg></g><defs></defs></svg><rect width="395.52" height="132.3527135559549" fill="none" stroke="none" visibility="hidden"></rect></g></svg></g></svg>